# xmcd
#
# Track frame offsets: 
#        150
#        22832
#        46435
#        68000
#        87850
#        107327
#        128275
#        150110
#        174975
#        195510
#        218097
#        234872
#
# Disc length: 3360 seconds
#
# Revision: 7
# Processed by: cddbd v1.5.2PL0 Copyright (c) Steve Scherf et al.
# Submitted via: ExactAudioCopyFreeDBPlugin 1.0
#
DISCID=7a0d1e0c
DTITLE=EMMYLOU HARRIS - Red Dirt Girl
DYEAR=2000
DGENRE=Country
TTITLE0=The Pearl
TTITLE1=Michelangelo
TTITLE2=I Don't Wanna Talk About It Now
TTITLE3=Tragedy
TTITLE4=Red Dirt Girl
TTITLE5=My Baby Needs A Shepherd
TTITLE6=Bang The Drum Slowly
TTITLE7=J'ai fait tout
TTITLE8=One Big Love
TTITLE9=Hour Of Gold
TTITLE10=My Antonia
TTITLE11=Boy From Tupelo
EXTD=YEAR: 2000\n
EXTT0=
EXTT1=
EXTT2=
EXTT3=
EXTT4=
EXTT5=
EXTT6=
EXTT7=
EXTT8=
EXTT9=
EXTT10=
EXTT11=
PLAYORDER=
